<svg width="2648" height="1462" viewBox="0 0 2648 1462" fill="none" xmlns="http://www.w3.org/2000/svg">
<rect width="2648" height="1462" fill="#56B991"/>
<path d="M0 412.88L110.333 471.346C220.667 527.627 441.333 647.839 662 646.2C882.667 647.839 1103.33 527.627 1324 587.733C1544.67 647.839 1765.33 877.334 1986 821.053C2206.67 762.586 2427.33 412.88 2537.67 238.026L2648 63.1729V1462H2537.67C2427.33 1462 2206.67 1462 1986 1462C1765.33 1462 1544.67 1462 1324 1462C1103.33 1462 882.667 1462 662 1462C441.333 1462 220.667 1462 110.333 1462H0V412.88Z" fill="#64C29C"/>
</svg>
