<svg id="directions_walk-24px" xmlns="http://www.w3.org/2000/svg" width="75.518" height="75.518" viewBox="0 0 75.518 75.518">
  <path id="Path_19" data-name="Path 19" d="M0,0H75.518V75.518H0Z" fill="none"/>
  <path id="Path_20" data-name="Path 20" d="M29.6,14.086a6.293,6.293,0,1,0-6.293-6.293A6.312,6.312,0,0,0,29.6,14.086Zm-11.642,10.7L9.9,65.407a3.133,3.133,0,0,0,3.084,3.744h.252A3.162,3.162,0,0,0,16.321,66.7l5.1-22.718,6.608,6.293V66a3.147,3.147,0,1,0,6.293,0V48.258A6.258,6.258,0,0,0,32.368,43.7l-4.657-4.437,1.888-9.44A23.037,23.037,0,0,0,43.318,37.4a3.148,3.148,0,0,0,.913-6.23,15.305,15.305,0,0,1-10.856-7.331l-3.147-5.035a6.751,6.751,0,0,0-8.338-2.643L9.839,21.26A6.327,6.327,0,0,0,6,27.082v7.457a3.147,3.147,0,1,0,6.293,0V26.987l5.664-2.2" transform="translate(12.879 3.22)" fill="#5779bc"/>
</svg>
