<svg id="Component_62_1" data-name="Component 62 – 1" xmlns="http://www.w3.org/2000/svg" width="84.008" height="56.005" viewBox="0 0 84.008 56.005">
  <path id="laptop-24px" d="M70.007,53a7.021,7.021,0,0,0,7-7V11a7.021,7.021,0,0,0-7-7H14a7.021,7.021,0,0,0-7,7V46a7.021,7.021,0,0,0,7,7H3.5a3.5,3.5,0,1,0,0,7H80.508a3.5,3.5,0,1,0,0-7ZM17.5,11h49a3.511,3.511,0,0,1,3.5,3.5v28a3.511,3.511,0,0,1-3.5,3.5h-49A3.511,3.511,0,0,1,14,42.5v-28A3.511,3.511,0,0,1,17.5,11Z" transform="translate(0 -4)" fill="#5779bc"/>
  <g id="dashboard-24px" transform="translate(26.38 9.356)">
    <path id="Path_17" data-name="Path 17" d="M0,0H31.964V31.964H0Z" fill="none"/>
    <path id="Path_18" data-name="Path 18" d="M4.332,16.319h7.991a1.336,1.336,0,0,0,1.332-1.332V4.332A1.336,1.336,0,0,0,12.323,3H4.332A1.336,1.336,0,0,0,3,4.332V14.987A1.336,1.336,0,0,0,4.332,16.319Zm0,10.655h7.991a1.336,1.336,0,0,0,1.332-1.332V20.314a1.336,1.336,0,0,0-1.332-1.332H4.332A1.336,1.336,0,0,0,3,20.314v5.327A1.336,1.336,0,0,0,4.332,26.973Zm13.319,0h7.991a1.336,1.336,0,0,0,1.332-1.332V14.987a1.336,1.336,0,0,0-1.332-1.332H17.65a1.336,1.336,0,0,0-1.332,1.332V25.641A1.336,1.336,0,0,0,17.65,26.973ZM16.319,4.332V9.659a1.336,1.336,0,0,0,1.332,1.332h7.991a1.336,1.336,0,0,0,1.332-1.332V4.332A1.336,1.336,0,0,0,25.641,3H17.65A1.336,1.336,0,0,0,16.319,4.332Z" transform="translate(0.996 0.996)" fill="#5779bc"/>
  </g>
</svg>
