<svg width="1951" height="509" viewBox="0 0 1951 509" fill="none" xmlns="http://www.w3.org/2000/svg">
<rect x="31" width="1920" height="380" fill="#5879BC"/>
<path d="M1487.75 366.494C1472.62 415.122 1438.69 457.331 1389.56 462.724C1340.31 468.301 1276.01 436.879 1267.08 398.988C1258.33 361.227 1305.08 316.814 1352.52 283.869C1399.96 250.924 1448.13 229.761 1473.88 246.575C1499.57 263.075 1503.06 317.995 1487.75 366.494Z" fill="#6884BD"/>
<path d="M171.108 89.2102C181.13 106.314 162.179 149.073 158.534 181.461C155.072 213.667 166.917 235.501 160.721 247.328C154.343 259.156 129.925 260.975 108.787 266.07C87.8312 270.983 70.1555 279.352 49.7464 278.989C29.3373 278.443 6.01263 269.345 1.09258 253.515C-3.82747 237.503 9.47488 214.577 9.29266 184.736C8.92821 154.714 -4.92082 117.777 5.28373 100.855C15.3061 83.7516 49.382 86.6629 85.8268 83.7516C122.272 80.8403 161.268 72.2885 171.108 89.2102Z" fill="#6884BD"/>
<path d="M703.625 32C734.828 32.2536 755.122 69.2733 770.09 105.532C785.311 142.045 794.95 178.05 787.34 209.745C779.73 241.187 754.615 268.317 736.604 299.505C718.339 330.693 707.177 365.684 683.584 382.166C659.992 398.393 624.223 396.111 590.737 392.054C556.997 387.744 526.048 381.659 508.798 361.627C491.293 341.596 487.742 307.873 479.37 280.995C470.745 254.118 457.046 234.087 444.109 206.702C431.171 179.065 418.994 144.327 426.097 114.66C432.947 84.9939 459.33 60.6522 489.518 59.8916C519.706 59.1309 553.953 81.9512 592.005 75.3587C630.311 68.5126 672.422 32 703.625 32Z" fill="#6884BD"/>
<path d="M1774.37 59.5444C1787.36 71.3224 1795.81 86.7244 1811.07 102.126C1826.32 117.377 1848.51 132.326 1844.74 145.312C1840.96 158.147 1811.22 168.717 1795.51 183.364C1779.96 198.162 1778.45 216.735 1769.24 235.157C1760.03 253.428 1742.96 271.397 1726.96 269.887C1710.95 268.226 1695.85 247.086 1680.15 232.439C1664.29 217.943 1647.99 209.94 1633.04 196.954C1618.24 183.817 1604.95 165.546 1611.9 151.352C1618.69 137.158 1645.72 126.89 1660.07 112.847C1674.26 98.8044 1675.77 80.8354 1684.68 66.7924C1693.59 52.7494 1709.74 42.3304 1726.81 41.1224C1743.72 39.9144 1761.39 47.7664 1774.37 59.5444Z" fill="#6884BD"/>
</svg>
