<svg id="accessibility_new-24px" xmlns="http://www.w3.org/2000/svg" width="75.518" height="75.518" viewBox="0 0 75.518 75.518">
  <path id="Path_284" data-name="Path 284" d="M0,0H75.518V75.518H0Z" fill="none"/>
  <path id="Path_285" data-name="Path 285" d="M58.383,17.7a3.268,3.268,0,0,0-3.9-2.36A111.525,111.525,0,0,1,30.85,17.733,111.525,111.525,0,0,1,7.219,15.341a3.255,3.255,0,0,0-1.542,6.325,120.093,120.093,0,0,0,15.733,2.36V61.785a3.147,3.147,0,1,0,6.293,0V46.052H34V61.785a3.147,3.147,0,1,0,6.293,0V24.026a118.834,118.834,0,0,0,15.7-2.36A3.249,3.249,0,0,0,58.383,17.7ZM30.85,14.586a6.293,6.293,0,1,0-6.293-6.293A6.312,6.312,0,0,0,30.85,14.586Z" transform="translate(6.909 4.293)" fill="#5779bc"/>
</svg>
